<?xml version="1.0" encoding="utf-8"?>
<!-- Generator: Adobe Illustrator 24.0.3, SVG Export Plug-In . SVG Version: 6.00 Build 0)  -->
<!DOCTYPE svg PUBLIC "-//W3C//DTD SVG 1.1//EN" "http://www.w3.org/Graphics/SVG/1.1/DTD/svg11.dtd" [
	<!ENTITY ns_extend "http://ns.adobe.com/Extensibility/1.0/">
	<!ENTITY ns_ai "http://ns.adobe.com/AdobeIllustrator/10.0/">
	<!ENTITY ns_graphs "http://ns.adobe.com/Graphs/1.0/">
	<!ENTITY ns_vars "http://ns.adobe.com/Variables/1.0/">
	<!ENTITY ns_imrep "http://ns.adobe.com/ImageReplacement/1.0/">
	<!ENTITY ns_sfw "http://ns.adobe.com/SaveForWeb/1.0/">
	<!ENTITY ns_custom "http://ns.adobe.com/GenericCustomNamespace/1.0/">
	<!ENTITY ns_adobe_xpath "http://ns.adobe.com/XPath/1.0/">
]>
<svg version="1.1" id="Hurricane" xmlns:x="&ns_extend;" xmlns:i="&ns_ai;" xmlns:graph="&ns_graphs;"
	 xmlns="http://www.w3.org/2000/svg" xmlns:xlink="http://www.w3.org/1999/xlink" x="0px" y="0px" viewBox="0 0 188.7 177.8"
	 style="enable-background:new 0 0 188.7 177.8;" xml:space="preserve">
<style type="text/css">
	.st0{fill:#4976A1;}
	.st1{fill:#E1E1E1;}
</style>
<metadata>
	<sfw  xmlns="&ns_sfw;">
		<slices></slices>
		<sliceSourceBounds  bottomLeftOrigin="true" height="177.8" width="188.7" x="251.4" y="-475.7"></sliceSourceBounds>
	</sfw>
</metadata>
<path class="st0" d="M136.8,29.7c-8,17.9,23.9,21,16.9,70C145.2,158.7,68.4,190,0,173.4c0,0,40.4,0.9,52.1-25.3
	c8-17.9-23.9-21-16.9-70c8.4-58.9,85.1-90.3,153.5-73.7C187.8,4.4,148.3,3.8,136.8,29.7z"/>
<path class="st1" d="M114.1,88.9c0,10.2-8.2,18.4-18.4,18.4c-10.2,0-18.4-8.2-18.4-18.4c0-10.2,8.2-18.4,18.4-18.4
	C105.8,70.5,114.1,78.7,114.1,88.9z"/>
</svg>
