<?xml version="1.0"?>
<svg width="2481" height="2073" xmlns="http://www.w3.org/2000/svg" xmlns:svg="http://www.w3.org/2000/svg">
 <title>dark dark blue pin</title>
 <g class="layer">
  <title>Layer 1</title>
  <g id="svg_1">
   <path clip-rule="evenodd" d="m1277.83,1089.79c-24.99,-120 -69.06,-219.87 -122.42,-312.42c-39.59,-68.65 -85.45,-132.02 -127.88,-198.6c-14.16,-22.22 -26.39,-45.7 -39.99,-68.77c-27.22,-46.12 -49.28,-99.59 -47.88,-168.95c1.37,-67.78 21.41,-122.14 50.3,-166.59c47.52,-73.1 127.13,-133.05 233.93,-148.8c87.33,-12.88 169.21,8.88 227.27,42.09c47.45,27.14 84.19,63.39 112.12,106.11c29.15,44.59 49.23,97.27 50.91,165.99c0.86,35.21 -5.03,67.81 -13.33,94.85c-8.4,27.37 -21.91,50.26 -33.93,74.7c-23.47,47.71 -52.89,91.42 -82.43,135.16c-87.96,130.28 -170.51,263.15 -206.66,445.21z" fill="#aad4ff" fill-rule="evenodd" id="svg_2" stroke="#000000" stroke-miterlimit="10" stroke-width="37"/>
   <path clip-rule="evenodd" d="m1278.12,1149.56c84.84,-76.22 136.22,-148.81 173.5,-221.01c27.65,-53.57 45.47,-106.68 68.95,-160.21c7.84,-17.87 18.38,-35.67 27.41,-53.79c18.06,-36.23 46.84,-74.5 108.97,-112.31c60.7,-36.95 125.03,-59.12 187.97,-72.33c103.51,-21.72 221.94,-23.52 324,9.84c83.45,27.27 131.95,71.55 150.71,112.79c15.33,33.7 13.82,68.22 -0.67,102.85c-15.12,36.15 -44.85,73.19 -103.86,111.86c-30.23,19.81 -63.76,35.53 -94.38,47.21c-31,11.83 -62.27,19.16 -93.69,27.95c-61.32,17.15 -124.05,29.73 -186.88,42.3c-187.16,37.42 -372.13,78.39 -562.02,164.85z" fill-rule="evenodd" id="svg_3" opacity="0.09"/>
   <circle clip-rule="evenodd" cx="1276.93" cy="340.29" fill-rule="evenodd" id="svg_4" r="70.27"/>
  </g>
 </g>
</svg>